<?xml version="1.0" encoding="utf-8"?>
<svg viewBox="0 0 600 600" xmlns="http://www.w3.org/2000/svg">
  <defs>
    <linearGradient id="gradient-1">
      <stop style="stop-color: rgb(23, 26, 235);" offset="0"/>
      <stop style="stop-color: rgb(146, 17, 181);" offset="1"/>
    </linearGradient>
  </defs>
  <path d="M0 0 C5.16201692 1.00149996 8.89354793 0.86741803 14 -0.375 C34.33514882 -5.23183242 57.99305955 -5.80350946 76.4765625 5.2421875 C85.17528776 11.30167104 93.80195297 19.11953084 97.6875 29.1875 C99.93067508 34.07819932 104.14534526 35.27048674 108.83984375 37.38671875 C114.058372 40.0508129 117.90402915 43.87017815 122 48 C122.74894531 48.70382813 123.49789063 49.40765625 124.26953125 50.1328125 C128.09813769 53.98153421 130.94723905 57.65104699 133.15234375 62.61328125 C137.88104247 73.76261126 137.88104247 73.76261126 147.46337891 80.4621582 C150.55937328 81.50048431 153.67465658 82.43577615 156.81835938 83.31835938 C165.86876194 86.14610378 173.84355171 91.93822831 181 98 C181.66386719 98.51949219 182.32773437 99.03898437 183.01171875 99.57421875 C200.24551274 113.55763116 210.60691144 137.26965564 213 159 C213.78061749 167.58883061 214.31460493 176.04303676 213.35083008 184.62939453 C212.55824047 190.69242173 212.55824047 190.69242173 214.2421875 196.3828125 C215.97776497 198.34628883 215.97776497 198.34628883 217.9609375 200.109375 C227.67576917 209.1169967 232.24632041 224.23923156 233.23828125 237.0859375 C233.6749108 256.43552065 226.97385495 273.56472231 214 288 C213.34 288.66 212.68 289.32 212 290 C211.79108752 292.56067016 211.68115586 295.06073734 211.625 297.625 C210.76013851 317.27923778 203.99892307 335.79419629 190 350 C182.24118738 356.87940631 182.24118738 356.87940631 178 359 C177.9906543 359.56283691 177.98130859 360.12567383 177.97167969 360.70556641 C177.44852321 385.87349601 170.94093124 403.30184184 153 421 C151.83210937 422.18335938 151.83210937 422.18335938 150.640625 423.390625 C130.80904593 442.401587 105.63299619 453.48360254 78.12109375 453.2109375 C53.9801516 452.27823237 30.6121622 442.04817452 12.41333008 426.40356445 C9.22699296 423.70555486 8.35805205 423 4 423 C1.77227939 424.43420535 -0.2813449 425.891375 -2.375 427.5 C-26.10094974 445.03277903 -55.4229873 456.54405794 -85.32421875 452.46875 C-114.70056978 447.89420244 -143.08917534 431.03021248 -161.13671875 407.17578125 C-170.73795861 392.57606511 -176.16021987 376.55677705 -173 359 C-173.70382813 358.77570313 -174.40765625 358.55140625 -175.1328125 358.3203125 C-178.61265139 356.71787988 -181.12828398 354.48138892 -183.875 351.875 C-184.40383789 351.37637451 -184.93267578 350.87774902 -185.47753906 350.36401367 C-186.99502951 348.91932741 -188.49836134 347.46112493 -190 346 C-190.67804688 345.35933594 -191.35609375 344.71867187 -192.0546875 344.05859375 C-201.49703902 334.33340682 -207.53983391 319.33700078 -208.33203125 305.97265625 C-208.70017078 293.20577831 -208.70017078 293.20577831 -215.7734375 283.15625 C-225.73438431 273.50985941 -231.02092982 257.46598064 -232 244 C-232.17320416 225.56337964 -225.82025554 211.10106501 -213.85546875 197.3125 C-210.72947967 193.41653046 -210.90826902 190.32075486 -211.0078125 185.48828125 C-211.0269873 184.18060791 -211.04616211 182.87293457 -211.06591797 181.52563477 C-211.07637146 180.83704376 -211.08682495 180.14845276 -211.09759521 179.43899536 C-211.48252904 149.56975924 -204.23205647 125.10499286 -183.4375 103 C-171.61940745 91.50667946 -156.60100937 83.10674735 -140.5 79.5625 C-136.59434268 78.3502177 -134.78662399 77.07144335 -132.80078125 73.5859375 C-131.40477014 70.80602525 -130.16306187 67.96716762 -128.91796875 65.1171875 C-126.30506928 59.22092909 -122.41079921 54.65543177 -118 50 C-117.26394531 49.21109375 -116.52789062 48.4221875 -115.76953125 47.609375 C-110.83366014 42.74791401 -105.91803159 39.87899341 -99.6875 37.0625 C-93.51624236 34.24169575 -90.56480084 32.14968249 -88.11328125 25.58203125 C-83.18082513 14.14219441 -70.39622379 6.00638657 -59.41015625 1.2890625 C-40.47669205 -5.86791709 -19.44948905 -4.1615869 0 0 Z M-65.3125 35.25 C-69.64049765 40.67506669 -72.3223334 47.03263963 -72 54 C-72.83402344 54.15855469 -73.66804687 54.31710938 -74.52734375 54.48046875 C-88.47216569 57.37166322 -98.80852865 63.38036123 -106.78320312 75.41235352 C-113.89336403 86.51556025 -113.39991329 95.7978927 -110.8527832 108.41992188 C-108.40534335 119.39525765 -104.14180819 132.80202892 -95 140 C-88.56599515 143.98598886 -82.60029719 146.70768088 -75 147 C-75 147.33 -75 147.66 -75 148 C-89.49305484 149.93240731 -100.99793419 148.0013772 -113.1875 139.875 C-123.38392107 130.60028931 -127.43664709 115.83386454 -131 103 C-148.62078872 105.51725553 -164.3385805 117.19181792 -175 131 C-186.67998613 147.27448305 -188.41728482 165.6426209 -188 185 C-186.824375 184.835 -185.64875 184.67 -184.4375 184.5 C-168.54721365 182.82338711 -157.21886556 184.11381093 -144.38671875 193.98046875 C-139.85067461 197.81865994 -137.11820956 201.39851249 -135 207 C-136.32451172 206.16855469 -136.32451172 206.16855469 -137.67578125 205.3203125 C-147.38856384 199.38184972 -155.11172177 195.90484303 -166.75 197.875 C-182.89689087 201.87175517 -195.18862151 211.00883069 -204 225 C-208.238195 232.74034492 -209.42734717 240.20240448 -207.3046875 248.82421875 C-203.66663311 259.78423975 -196.80430996 267.69274563 -189 276 C-186.73306707 275.49446331 -184.64786832 274.86427123 -182.4765625 274.02734375 C-173.30382237 270.52159786 -163.44543766 268.82714428 -154.0625 272.625 C-146.99947892 276.37353074 -142.59197144 280.3765546 -140 288 C-140.41121094 287.55011719 -140.82242188 287.10023438 -141.24609375 286.63671875 C-145.51811184 282.65013617 -151.09334226 280.74897091 -156.875 280.5 C-167.47646079 281.00795253 -178.53462828 286.53462828 -186 294 C-185.70919573 307.37699651 -181.80396091 319.0606557 -172.3828125 328.74609375 C-165.91038982 334.86836898 -159.13599307 340.71175925 -150 342 C-147.35333529 341.3615679 -145.32843268 340.46510062 -142.97265625 339.11328125 C-137.56555796 336.06175053 -130.7318797 336.22471513 -124.78125 337.4609375 C-119.58020732 339.16127837 -116.53503817 341.86141873 -113 346 C-112.505 347.485 -112.505 347.485 -112 349 C-112.61746094 348.69964844 -113.23492187 348.39929688 -113.87109375 348.08984375 C-121.46238243 344.68127425 -126.22387951 344.25761193 -134.01953125 347.1015625 C-141.26174643 350.29849596 -145.54632757 353.83328844 -149 361 C-151.68579943 369.05739828 -150.07940894 376.53466025 -146.61328125 384.08203125 C-143.95356153 388.89271074 -140.68224335 392.93778783 -137 397 C-136.40574219 397.67546875 -135.81148438 398.3509375 -135.19921875 399.046875 C-121.20692381 414.02791884 -99.00103781 427.07039541 -78.28515625 428.203125 C-58.40801443 428.57340398 -34.74434925 422.97507952 -19.296875 409.51611328 C-18.77609375 409.00677246 -18.2553125 408.49743164 -17.71875 407.97265625 C-10.16770721 400.61721205 -4.27055772 398.96435917 6.375 398.875 C8.05227173 398.84974243 8.05227173 398.84974243 9.76342773 398.82397461 C16.70397739 399.04903699 20.50120309 400.29484853 25.38964844 405.27099609 C26.18677246 406.12685303 26.18677246 406.12685303 27 407 C44.65393361 421.13478045 66.16613314 429.88214916 89 428 C105.5558152 425.79496784 119.26512578 417.44223864 132 407 C132.88558594 406.27941406 133.77117187 405.55882812 134.68359375 404.81640625 C144.49550272 396.43820088 153.69094079 385.22357326 155.23828125 371.95703125 C155.49282264 364.60212491 153.05623847 359.47978818 149.375 353.25 C144.18687699 348.3349361 137.39587974 345.29166998 130.25 344.78125 C126.11245624 345.1835112 122.60167401 347.01609919 119 349 C120.15650827 344.08483986 123.05855614 342.08988635 126.9296875 339.234375 C131.55808484 336.47480225 136.74956005 336.38558681 142 337 C144.85060704 337.90413991 147.57412542 338.95162685 150.32421875 340.125 C154.41515016 341.46276443 157.58563831 341.51469375 161.640625 340.0390625 C174.47581164 333.08346735 182.82786107 323.62606236 187.02734375 309.55859375 C188.31359488 304.34838758 189.46555371 299.39141232 189 294 C184.62183478 287.34025572 174.25345091 283.41781697 167 281 C159.66047432 280.34310614 154.74870001 281.18847499 148.75 285.6875 C147 287 147 287 145 287 C148.46974823 280.06050353 153.28628223 274.27008311 160.80859375 271.4765625 C170.40144208 269.39041723 178.50311683 270.97528449 187.2578125 275.1015625 C189.89577234 276.25366158 189.89577234 276.25366158 192.16015625 275.359375 C200.67179002 269.07052457 207.27398268 258.10305946 210 248 C211.15279217 236.68655125 209.388655 228.24929529 202.5625 219.1875 C193.16871367 207.87135655 181.53223843 199.62436204 166.75 197.0625 C156.00982843 196.88349714 149.09376457 201.37782899 141 208 C140.67 208 140.34 208 140 208 C143.8731856 197.4563281 151.23090554 191.0565567 161.1171875 185.89453125 C170.59214218 182.08667211 181.40651699 183.33926604 191 186 C191.64154646 162.59543467 188.66492905 142.26193669 173 124 C172.42378906 123.32324219 171.84757812 122.64648438 171.25390625 121.94921875 C164.57931284 114.73041389 155.83439643 110.23959354 147.0625 106.0625 C146.1044043 105.60230469 146.1044043 105.60230469 145.12695312 105.1328125 C141.76681454 103.58636484 139.77737166 103 136 103 C135.72027344 104.22074219 135.44054687 105.44148438 135.15234375 106.69921875 C131.72876415 121.00541094 127.5538574 134.68292043 114.8984375 143.45703125 C105.30135857 149.02590481 93.75640286 149.65298841 83 148 C83 147.67 83 147.34 83 147 C84.03447266 146.88785156 84.03447266 146.88785156 85.08984375 146.7734375 C94.44370572 145.46466669 100.64907436 142.11984919 106.75 134.875 C114.10403145 124.71213709 117.92962885 111.41630529 119 99 C119.09925781 97.97261719 119.19851563 96.94523437 119.30078125 95.88671875 C119.97596094 83.77320087 115.27222871 76.66729223 107.6875 67.625 C101.68523951 61.29774402 95.74200089 57.39901744 87.125 55.875 C84.33984375 55.21875 84.33984375 55.21875 82 54 C80.42712608 51.09623276 79.67828605 48.3384969 78.87109375 45.140625 C76.62398585 37.0389445 71.18055873 31.14651983 64 27 C57.8733939 24.12123328 52.04167601 21.87655443 45.2265625 21.8671875 C44.3190625 21.86589844 43.4115625 21.86460938 42.4765625 21.86328125 C41.06503906 21.86908203 41.06503906 21.86908203 39.625 21.875 C38.69171875 21.87113281 37.7584375 21.86726563 36.796875 21.86328125 C35.43175781 21.86521484 35.43175781 21.86521484 34.0390625 21.8671875 C32.80470459 21.86887939 32.80470459 21.86887939 31.54541016 21.87060547 C28.94266161 21.94983649 28.94266161 21.94983649 26.18701172 22.5 C22.43249379 23.08903422 18.75764873 23.14352735 14.96875 23.1328125 C13.83753723 23.13424759 13.83753723 23.13424759 12.68347168 23.13571167 C11.09676021 23.13638898 9.51004591 23.13456617 7.92333984 23.13037109 C5.50742311 23.12501645 3.09169226 23.13033135 0.67578125 23.13671875 C-0.87239624 23.13605789 -2.42057361 23.13477656 -3.96875 23.1328125 C-4.68454224 23.13483673 -5.40033447 23.13686096 -6.13781738 23.13894653 C-10.20472741 23.12011936 -14.00395458 22.72121373 -18 22 C-35.61180784 20.75026322 -52.4585289 21.66060269 -65.3125 35.25 Z " transform="matrix(0.9999999999999999, 0, 0, 0.9999999999999999, 301, 12.999999999999993)" style="fill: url('#gradient-1'); paint-order: fill;"/>
  <path d="M0 0 C8.25 0 16.5 0 25 0 C25.495 3.465 25.495 3.465 26 7 C40.85 7.33 55.7 7.66 71 8 C71 15.92 71 23.84 71 32 C55.82 32 40.64 32 25 32 C25 37.28 25 42.56 25 48 C35.89 48 46.78 48 58 48 C58 56.91 58 65.82 58 75 C47.11 75 36.22 75 25 75 C25 129.78 25 184.56 25 241 C26.98 241.33 28.96 241.66 31 242 C43.50996689 246.40203418 53.07177136 256.36968769 59 268 C65.42502877 283.08997583 66.60066472 300.35373183 61.2578125 316.02734375 C55.41364374 329.83918359 45.88829407 340.29270861 32.02734375 346.28515625 C17.11143244 351.88615121 2.47503067 351.39882976 -12.0625 344.875 C-21.16755602 340.04020078 -27.92061438 332.87690736 -33 324 C-33.37769531 323.38898438 -33.75539063 322.77796875 -34.14453125 322.1484375 C-41.42551569 309.33172332 -41.36601801 293.63361336 -38.12109375 279.67578125 C-35.7763076 271.98782389 -32.41402997 263.0456668 -27 257 C-26.34 257 -25.68 257 -25 257 C-24.77441406 256.4225 -24.54882812 255.845 -24.31640625 255.25 C-20.28972014 248.36759288 -10.46952029 243.36534809 -3 241 C-2.01 241 -1.02 241 0 241 C0 161.47 0 81.94 0 0 Z M-15 269 C-21.79563607 277.8700934 -25.45874393 288.8053696 -24 300 C-21.40935759 311.98720978 -16.31969767 321.99858895 -6 329 C2.83439373 333.9427557 11.2641381 335.90179186 21.140625 333.11328125 C33.2071277 328.55044543 39.33754387 321.30669955 45 310.00390625 C49.65739589 299.23367824 48.11182949 288.48272751 44.1875 277.78515625 C40.11946031 268.61390607 33.06378653 262.0518543 24 258 C23.22398437 257.63519531 22.44796875 257.27039063 21.6484375 256.89453125 C7.25832822 252.03415511 -5.45282359 258.51294612 -15 269 Z " fill="#5015C9" transform="matrix(0.9999999999999999, 0, 0, 0.9999999999999999, 290.99999999999994, 58.999999999999986)" style="fill: url('#gradient-1');"/>
  <path d="M 314 451.776 C 316.785 452.806 319.347 454.16 321.953 455.555 C 322.695 455.94 323.436 456.325 324.2 456.721 C 326.556 457.947 328.903 459.189 331.25 460.432 C 332.843 461.264 334.437 462.096 336.031 462.927 C 338.94 464.444 341.846 465.967 344.747 467.499 C 349.332 469.909 351.539 470.301 356.801 470.315 C 357.85 470.32 357.85 470.32 358.921 470.325 C 360.443 470.333 361.964 470.337 363.486 470.341 C 365.9 470.348 368.313 470.364 370.727 470.381 C 377.59 470.431 384.454 470.478 391.317 470.493 C 395.515 470.503 399.712 470.531 403.91 470.572 C 405.505 470.584 407.101 470.589 408.696 470.586 C 424.307 470.571 424.307 470.571 431 475.02 C 434.952 479.283 435.63 483.014 435.5 488.579 C 435.523 489.576 435.523 489.576 435.547 490.592 C 435.508 495.528 434.185 498.345 431 502.138 C 425.284 506.152 420.011 506.155 413.138 506.148 C 412.233 506.151 411.328 506.154 410.396 506.157 C 407.356 506.165 404.317 506.167 401.278 506.168 C 399.102 506.173 396.925 506.178 394.749 506.183 C 388.831 506.195 382.914 506.202 376.997 506.206 C 373.301 506.209 369.605 506.213 365.909 506.218 C 354.347 506.23 342.786 506.24 331.225 506.244 C 329.249 506.245 329.249 506.245 327.234 506.245 C 326.574 506.245 325.914 506.246 325.235 506.246 C 313.88 506.25 302.526 506.269 291.172 506.293 C 280.855 506.315 270.538 506.324 260.221 506.325 C 254.058 506.326 247.895 506.332 241.731 506.349 C 235.934 506.365 230.137 506.367 224.34 506.359 C 222.212 506.358 220.085 506.362 217.958 506.372 C 215.053 506.384 212.148 506.378 209.243 506.368 C 207.982 506.38 207.982 506.38 206.695 506.392 C 199.985 506.338 195.315 505.056 190.125 500.686 C 185.489 495.403 186.471 488.378 187 481.8 C 188.162 477.514 190.386 475.43 194.166 472.91 C 200.016 470.216 206.26 470.835 212.572 471.061 C 214.901 471.136 217.227 471.176 219.557 471.204 C 226.176 471.286 232.793 471.379 239.409 471.621 C 265.449 472.533 293.918 449.608 314 451.776 Z" fill="#4F15CA" style="fill: url('#gradient-1');" transform="matrix(0.9999999999999999, 0, 0, 0.9999999999999999, 0, -7.105427357601002e-15)"/>
  <path d="M0 0 C0.72212193 -0.00453111 1.44424386 -0.00906223 2.18824828 -0.01373065 C4.6025032 -0.02636809 7.01653235 -0.02475472 9.43081665 -0.02310181 C11.16401967 -0.02908744 12.89722002 -0.03589307 14.63041687 -0.04345703 C19.33500048 -0.06112 24.03951133 -0.06581252 28.74412489 -0.0670886 C31.68417714 -0.06851052 34.62421091 -0.07278087 37.56425858 -0.07808304 C47.82333806 -0.09658384 58.08236557 -0.10475353 68.34146118 -0.10317993 C77.90101907 -0.10197831 87.46035127 -0.12308467 97.01985204 -0.15466726 C105.23062081 -0.18082626 113.44131584 -0.19154739 121.65212595 -0.19026911 C126.55458615 -0.1897594 131.45684573 -0.19544802 136.35926437 -0.21662521 C140.97059714 -0.2360014 145.58153778 -0.23613634 150.19288445 -0.22159195 C151.8831394 -0.21950203 153.57341886 -0.22421571 155.26363182 -0.23631287 C157.57570901 -0.25178617 159.88643748 -0.24244495 162.19848633 -0.22705078 C164.13695466 -0.22868508 164.13695466 -0.22868508 166.11458397 -0.2303524 C171.61113753 0.52721506 175.28985105 2.71765169 179.10122681 6.82992554 C182.51836226 11.95562872 182.18768853 17.31115109 181.72622681 23.26742554 C179.83469928 28.94200812 176.07366643 32.59370573 170.72622681 35.26742554 C168.38345184 35.37084723 166.03764074 35.40699152 163.69259644 35.41459656 C162.59382412 35.42011159 162.59382412 35.42011159 161.47285438 35.42573804 C159.00554705 35.43679678 156.5382818 35.44062242 154.07095337 35.44442749 C152.30701564 35.4506905 150.54307923 35.45733716 148.77914429 35.46434021 C143.9773647 35.48176535 139.17559508 35.49230616 134.37379169 35.50054574 C131.37497344 35.50569285 128.37615829 35.51176872 125.37734222 35.51805687 C115.99821993 35.53711345 106.61910553 35.55134341 97.23996758 35.55966884 C86.40697833 35.56944301 75.57419331 35.59576529 64.74127603 35.63616973 C56.37263191 35.66631364 48.00404639 35.68113609 39.63534904 35.68444985 C34.63505486 35.68680237 29.63497876 35.69578898 24.63474274 35.72091103 C19.92990398 35.74416649 15.22542726 35.74843517 10.52054596 35.73814964 C8.79439084 35.73765355 7.06821805 35.7439956 5.34211731 35.75770569 C2.98357435 35.77538977 0.62633554 35.76833664 -1.73220825 35.75517273 C-3.05146175 35.75756108 -4.37071526 35.75994944 -5.72994614 35.76241016 C-11.26166449 34.98976649 -14.2717935 32.59437162 -17.58627319 28.20492554 C-20.25103898 23.56625916 -20.80786417 19.54036009 -20.27377319 14.26742554 C-18.59762329 9.062539 -16.47681408 5.76995961 -12.27377319 2.26742554 C-8.1277166 0.1657264 -4.61514484 0.01197664 0 0 Z " fill="#4F15CA" transform="matrix(0.9999999999999999, 0, 0, 0.9999999999999999, 224.2737884521484, 512.7325439453125)" style="fill: url('#gradient-1');"/>
  <path d="M 268.751 555.823 C 269.645 555.816 270.54 555.81 271.462 555.803 C 274.426 555.783 277.391 555.772 280.355 555.762 C 281.369 555.758 282.382 555.754 283.426 555.749 C 288.791 555.729 294.156 555.714 299.521 555.705 C 305.054 555.694 310.588 555.659 316.121 555.62 C 320.383 555.593 324.644 555.585 328.905 555.582 C 330.944 555.577 332.983 555.565 335.023 555.547 C 337.883 555.522 340.742 555.523 343.602 555.53 C 344.438 555.517 345.275 555.504 346.136 555.491 C 351.841 555.541 356.253 556.749 361 560 C 365.691 565.394 365.609 570.748 365.379 577.746 C 364.894 581.911 364.015 584.062 361 587 C 355.38 590.882 351.327 591.582 344.58 591.518 C 343.662 591.525 342.744 591.532 341.798 591.539 C 338.78 591.556 335.764 591.545 332.746 591.531 C 330.641 591.534 328.535 591.538 326.429 591.543 C 322.024 591.549 317.619 591.54 313.213 591.521 C 307.572 591.499 301.931 591.512 296.289 591.536 C 291.944 591.55 287.599 591.546 283.254 591.535 C 281.174 591.533 279.094 591.536 277.014 591.545 C 274.106 591.555 271.199 591.54 268.291 591.518 C 267.435 591.526 266.579 591.534 265.698 591.542 C 260.321 591.466 257.274 590.554 253 587 C 248.143 581.486 247.703 578.218 247.789 570.98 C 248.166 565.655 250.1 562.622 254 559.188 C 258.835 555.662 262.986 555.841 268.751 555.823 Z" fill="#4E16CB" style="fill: url('#gradient-1');" transform="matrix(0.9999999999999999, 0, 0, 0.9999999999999999, 0, -7.105427357601002e-15)"/>
</svg>